<svg width="28" height="28" viewBox="0 0 28 28" fill="none" xmlns="http://www.w3.org/2000/svg">
<path d="M12.3983 22.0607L12.234 13.8641L10.55 16.7693C10.1034 17.5397 9.18765 18.1673 8.00421 18.5138C6.82077 18.8603 5.46658 18.8974 4.23954 18.617C3.01251 18.3366 2.01314 17.7615 1.46129 17.0184C1.20384 16.6718 1.05363 16.3017 1.01198 15.9274L1.17635 24.124C1.21801 24.4983 1.36822 24.8683 1.62567 25.215C2.17751 25.9581 3.17688 26.5331 4.40392 26.8136C5.63095 27.094 6.98514 27.0569 8.16859 26.7103C9.35203 26.3638 10.2678 25.7363 10.7144 24.9658L12.3983 22.0607Z" fill="#FFFFFF"/>
<path d="M23.171 13.0738C22.7244 13.8443 21.8087 14.4718 20.6252 14.8183C19.4418 15.1648 18.0876 15.2019 16.8605 14.9215C15.6335 14.6411 14.6341 14.0661 14.0823 13.3229C13.7934 12.934 13.6396 12.5156 13.6226 12.0947L13.7748 19.6861L13.787 20.2913C13.8039 20.7122 13.9578 21.1305 14.2467 21.5195C14.7985 22.2626 15.7979 22.8377 17.0249 23.1181C18.2519 23.3985 19.6061 23.3614 20.7896 23.0149C21.973 22.6684 22.8888 22.0408 23.3354 21.2703C23.5192 20.9532 23.6174 20.6225 23.6307 20.2913L23.5717 17.3484L23.4664 12.0947C23.453 12.4259 23.3549 12.7566 23.171 13.0738Z" fill="#FFFFFF"/>
<path d="M23.9931 9.00809C22.8097 9.3546 21.4555 9.39173 20.2284 9.1113C21.4555 9.39173 22.4548 9.96674 23.0066 10.7099C23.3313 11.1471 23.4854 11.6214 23.4664 12.0947L23.5717 17.3484C23.7706 17.3086 23.9663 17.2606 24.1575 17.2047C25.3409 16.8581 26.2567 16.2306 26.7033 15.4601C26.8966 15.1265 26.9952 14.7779 27 14.4296L26.8356 6.23299C26.8308 6.58136 26.7323 6.92994 26.5389 7.26356C26.0923 8.03404 25.1765 8.66157 23.9931 9.00809Z" fill="#FFFFFF"/>
<path d="M15.6017 8.05405L10.9751 6.99667C10.9644 6.99423 10.9538 6.99176 10.9431 6.98928M15.6017 8.05405L18.9695 2.24382L14.343 1.18644C13.1159 0.906012 11.7617 0.943138 10.5783 1.28966C9.39486 1.63617 8.47911 2.2637 8.03251 3.03418C7.85507 3.3403 7.75742 3.65899 7.73883 3.97858M15.6017 8.05405L15.6019 8.05392M7.73883 3.97858C7.73294 4.0798 7.73498 4.18111 7.74492 4.28214M7.73883 3.97858L7.74492 4.28214M7.74492 4.28214C7.78259 4.66499 7.93372 5.04375 8.19688 5.39811C8.74392 6.13474 9.73071 6.70621 10.9431 6.98928M7.74492 4.28214L7.79854 6.95562M15.6019 8.05392L18.9697 2.24369L23.5963 3.30107C24.8233 3.5815 25.8227 4.15652 26.3745 4.89963C26.6874 5.32098 26.8419 5.7768 26.8356 6.23299M15.6019 8.05392L10.9753 6.99655C10.9646 6.9941 10.9538 6.99168 10.9431 6.98928M15.6019 8.05392L20.2284 9.1113M15.6019 8.05392L13.9201 10.9553M20.2284 9.1113C21.4555 9.39173 22.8097 9.3546 23.9931 9.00809C25.1765 8.66157 26.0923 8.03404 26.5389 7.26356C26.7323 6.92994 26.8308 6.58136 26.8356 6.23299M20.2284 9.1113C19.0014 8.83086 17.6472 8.86798 16.4637 9.2145C15.2822 9.56045 14.3675 10.1865 13.9201 10.9553M20.2284 9.1113C21.4555 9.39173 22.4548 9.96674 23.0066 10.7099C23.3313 11.1471 23.4854 11.6214 23.4664 12.0947M26.8356 6.23299L27 14.4296C26.9952 14.7779 26.8966 15.1265 26.7033 15.4601C26.2567 16.2306 25.3409 16.8581 24.1575 17.2047C23.9663 17.2606 23.7706 17.3086 23.5717 17.3484M7.60742 12.8068C6.38039 12.5263 5.38102 11.9513 4.82917 11.2082C4.55424 10.838 4.40159 10.4412 4.37285 10.0409M7.60742 12.8068L12.234 13.8641M7.60742 12.8068C6.57833 12.5716 5.45976 12.5597 4.42752 12.7665M12.234 13.8641L12.3983 22.0607M12.234 13.8641L10.55 16.7693C10.1034 17.5397 9.18765 18.1673 8.00421 18.5138C6.82077 18.8603 5.46658 18.8974 4.23954 18.617C3.01251 18.3366 2.01314 17.7615 1.46129 17.0184C1.20384 16.6718 1.05363 16.3017 1.01198 15.9274M12.234 13.8641L13.9158 10.9628M12.3983 22.0607L10.7144 24.9658C10.2678 25.7363 9.35203 26.3638 8.16859 26.7103C6.98514 27.0569 5.63095 27.094 4.40392 26.8136C3.17688 26.5331 2.17751 25.9581 1.62567 25.215C1.36822 24.8683 1.21801 24.4983 1.17635 24.124L1.01198 15.9274M12.3983 22.0607L13.7748 19.6861M4.36883 9.84021C4.37948 9.5034 4.47784 9.16684 4.6648 8.84429C5.11141 8.0738 6.02716 7.44628 7.2106 7.09976C7.40252 7.04356 7.59892 6.99551 7.79854 6.95562M4.36883 9.84021C4.36671 9.90712 4.36805 9.97404 4.37285 10.0409M4.36883 9.84021L4.37285 10.0409M4.37285 10.0409L4.42752 12.7665M13.9179 10.959C13.9187 10.9578 13.9194 10.9565 13.9201 10.9553M13.9179 10.959L13.9158 10.9628M13.9179 10.959L13.9201 10.9553M13.9179 10.959C13.9172 10.9603 13.9165 10.9615 13.9158 10.9628M13.6226 12.0947C13.6396 12.5156 13.7934 12.934 14.0823 13.3229C14.6341 14.0661 15.6335 14.6411 16.8605 14.9215C18.0876 15.2019 19.4418 15.1648 20.6252 14.8183C21.8087 14.4718 22.7244 13.8443 23.171 13.0738C23.3549 12.7566 23.453 12.4259 23.4664 12.0947M13.6226 12.0947L13.7748 19.6861M13.6226 12.0947C13.6091 11.7594 13.6824 11.4225 13.8435 11.0975C13.8659 11.0524 13.89 11.0074 13.9158 10.9628M23.4664 12.0947L23.5717 17.3484M1.01198 15.9274C0.964344 15.4993 1.05867 15.0655 1.29692 14.6545C1.74353 13.884 2.65928 13.2565 3.84272 12.91C4.03363 12.8541 4.22898 12.8062 4.42752 12.7665M7.79854 6.95562C8.81916 6.7517 9.92394 6.76136 10.9431 6.98928M13.7748 19.6861L13.787 20.2913C13.8039 20.7122 13.9578 21.1305 14.2467 21.5195C14.7985 22.2626 15.7979 22.8377 17.0249 23.1181C18.2519 23.3985 19.6061 23.3614 20.7896 23.0149C21.973 22.6684 22.8888 22.0408 23.3354 21.2703C23.5192 20.9532 23.6174 20.6225 23.6307 20.2913L23.5717 17.3484M13.9201 10.9553L13.9158 10.9628" stroke="#FFFFFF" stroke-width="1.9514"/>
</svg>
