<svg width="124" height="40" viewBox="0 0 124 40" fill="none" xmlns="http://www.w3.org/2000/svg">
<path fill-rule="evenodd" clip-rule="evenodd" d="M12.8752 6.66666L4.2762 30H18.3333V33.3333H27.1248L35.7238 9.99999H21.6667V6.66666H12.8752ZM9.05712 26.6667L15.1993 9.99999H18.3333V26.6667H9.05712ZM21.6667 13.3333H30.9429L24.8007 30H21.6667V13.3333Z" fill="#0F6FFF"/>
<path d="M63.7109 11.7V28.5H58.9589V21.948H52.4789V28.5H47.7269V11.7H52.4789V18.012H58.9589V11.7H63.7109ZM73.8068 25.236C74.4308 25.236 74.9668 25.148 75.4148 24.972C75.8788 24.796 76.3428 24.508 76.8068 24.108L79.1828 26.604C77.9508 28.012 76.1108 28.716 73.6628 28.716C72.1428 28.716 70.8068 28.428 69.6548 27.852C68.5028 27.276 67.6068 26.476 66.9668 25.452C66.3428 24.428 66.0308 23.268 66.0308 21.972C66.0308 20.692 66.3428 19.548 66.9668 18.54C67.5908 17.516 68.4468 16.716 69.5348 16.14C70.6388 15.564 71.8708 15.276 73.2308 15.276C74.4948 15.276 75.6468 15.54 76.6868 16.068C77.7428 16.58 78.5828 17.34 79.2068 18.348C79.8308 19.34 80.1428 20.524 80.1428 21.9L70.8548 23.676C71.3508 24.716 72.3348 25.236 73.8068 25.236ZM73.2548 18.516C72.4708 18.516 71.8308 18.764 71.3348 19.26C70.8388 19.74 70.5588 20.436 70.4948 21.348L75.7748 20.316C75.6148 19.772 75.3108 19.34 74.8628 19.02C74.4148 18.684 73.8788 18.516 73.2548 18.516ZM86.5893 17.052C87.0533 16.46 87.6533 16.02 88.3893 15.732C89.1413 15.428 89.9973 15.276 90.9573 15.276V19.38C90.5413 19.332 90.1973 19.308 89.9253 19.308C88.9493 19.308 88.1813 19.572 87.6213 20.1C87.0773 20.628 86.8053 21.436 86.8053 22.524V28.5H82.2453V15.492H86.5893V17.052ZM99.2498 28.716C97.8578 28.716 96.6018 28.428 95.4818 27.852C94.3618 27.276 93.4818 26.476 92.8418 25.452C92.2178 24.428 91.9058 23.268 91.9058 21.972C91.9058 20.692 92.2178 19.54 92.8418 18.516C93.4818 17.492 94.3538 16.7 95.4578 16.14C96.5778 15.564 97.8418 15.276 99.2498 15.276C100.658 15.276 101.922 15.564 103.042 16.14C104.162 16.7 105.034 17.492 105.658 18.516C106.282 19.524 106.594 20.676 106.594 21.972C106.594 23.268 106.282 24.428 105.658 25.452C105.034 26.476 104.162 27.276 103.042 27.852C101.922 28.428 100.658 28.716 99.2498 28.716ZM99.2498 25.092C100.05 25.092 100.706 24.82 101.218 24.276C101.73 23.716 101.986 22.948 101.986 21.972C101.986 21.012 101.73 20.26 101.218 19.716C100.706 19.172 100.05 18.9 99.2498 18.9C98.4498 18.9 97.7938 19.172 97.2818 19.716C96.7698 20.26 96.5138 21.012 96.5138 21.972C96.5138 22.948 96.7698 23.716 97.2818 24.276C97.7938 24.82 98.4498 25.092 99.2498 25.092ZM117.178 15.276C118.794 15.276 120.09 15.756 121.066 16.716C122.058 17.676 122.554 19.124 122.554 21.06V28.5H117.994V21.804C117.994 20.028 117.282 19.14 115.858 19.14C115.074 19.14 114.442 19.396 113.962 19.908C113.498 20.42 113.266 21.188 113.266 22.212V28.5H108.706V15.492H113.05V16.908C113.562 16.38 114.17 15.98 114.874 15.708C115.578 15.42 116.346 15.276 117.178 15.276Z" fill="white"/>
</svg>
