<svg width="35" height="22" viewBox="0 0 35 22" fill="none" xmlns="http://www.w3.org/2000/svg">
<g clip-path="url(#clip0)">
<path d="M7.21875 11C7.21875 10.0275 7.59902 9.0949 8.27591 8.40727C8.9528 7.71964 9.87086 7.33333 10.8281 7.33333C11.7854 7.33333 12.7034 7.71964 13.3803 8.40727C14.0572 9.0949 14.4375 10.0275 14.4375 11C14.4375 11.9725 14.0572 12.9051 13.3803 13.5927C12.7034 14.2804 11.7854 14.6667 10.8281 14.6667C9.87086 14.6667 8.9528 14.2804 8.27591 13.5927C7.59902 12.9051 7.21875 11.9725 7.21875 11Z" fill="#1ABCFE"/>
<path d="M0 18.3333C0 17.3609 0.380272 16.4282 1.05716 15.7406C1.73405 15.053 2.65211 14.6667 3.60938 14.6667H7.21875V18.3333C7.21875 19.3058 6.83848 20.2384 6.16159 20.9261C5.4847 21.6137 4.56664 22 3.60938 22C2.65211 22 1.73405 21.6137 1.05716 20.9261C0.380272 20.2384 0 19.3058 0 18.3333H0Z" fill="#0ACF83"/>
<path d="M7.21875 0V7.33333H10.8281C11.7854 7.33333 12.7034 6.94703 13.3803 6.25939C14.0572 5.57176 14.4375 4.63913 14.4375 3.66667C14.4375 2.69421 14.0572 1.76158 13.3803 1.07394C12.7034 0.386308 11.7854 0 10.8281 0L7.21875 0Z" fill="#FF7262"/>
<path d="M0 3.66667C0 4.63913 0.380272 5.57176 1.05716 6.25939C1.73405 6.94703 2.65211 7.33333 3.60938 7.33333H7.21875V0H3.60938C2.65211 0 1.73405 0.386308 1.05716 1.07394C0.380272 1.76158 0 2.69421 0 3.66667H0Z" fill="#F24E1E"/>
<path d="M0 11C0 11.9725 0.380272 12.9051 1.05716 13.5927C1.73405 14.2804 2.65211 14.6667 3.60938 14.6667H7.21875V7.33333H3.60938C2.65211 7.33333 1.73405 7.71964 1.05716 8.40727C0.380272 9.0949 0 10.0275 0 11H0Z" fill="#A259FF"/>
</g>
<path d="M18.9902 5.72852C18.9902 4.83789 19.1523 4.05859 19.4766 3.39062C19.8008 2.71875 20.2656 2.20508 20.8711 1.84961C21.4805 1.49023 22.1934 1.31055 23.0098 1.31055C23.8418 1.31055 24.6777 1.51172 25.5176 1.91406L24.9316 3.39062C24.6113 3.23828 24.2891 3.10547 23.9648 2.99219C23.6406 2.87891 23.3223 2.82227 23.0098 2.82227C22.3262 2.82227 21.7969 3.08008 21.4219 3.5957C21.0469 4.10742 20.8594 4.82227 20.8594 5.74023C20.8594 7.65039 21.5762 8.60547 23.0098 8.60547C23.6113 8.60547 24.3398 8.45508 25.1953 8.1543V9.67773C24.4922 9.9707 23.707 10.1172 22.8398 10.1172C21.5938 10.1172 20.6406 9.74023 19.9805 8.98633C19.3203 8.22852 18.9902 7.14258 18.9902 5.72852Z" fill="#2A64F8"/>
<path d="M27.0234 10V1.43359H29.3145L33.0352 7.84961H33.0762C33.0176 6.73633 32.9883 5.94922 32.9883 5.48828V1.43359H34.623V10H32.3145L28.5879 3.51953H28.5352C28.6094 4.66406 28.6465 5.48047 28.6465 5.96875V10H27.0234Z" fill="#2A64F8"/>
<defs>
<clipPath id="clip0">
<rect width="14.4375" height="22" fill="white"/>
</clipPath>
</defs>
</svg>
