<svg width="89" height="30" viewBox="0 0 89 30" fill="none" xmlns="http://www.w3.org/2000/svg">
<path d="M25.32 23.28C26.58 23.28 27.64 22.7 28.58 21.86H28.66L28.92 23H31.82V16.54C31.82 12.98 30.16 11.34 27.22 11.34C25.44 11.34 23.82 11.94 22.32 12.84L23.56 15.18C24.7 14.54 25.64 14.18 26.54 14.18C27.7 14.18 28.18 14.72 28.26 15.64C23.82 16.12 21.94 17.42 21.94 19.82C21.94 21.72 23.22 23.28 25.32 23.28ZM26.54 20.52C25.8 20.52 25.32 20.2 25.32 19.54C25.32 18.74 26.04 18.1 28.26 17.8V19.62C27.74 20.18 27.26 20.52 26.54 20.52ZM34.5689 23H38.1089V15.4C38.8089 14.74 39.2889 14.38 40.0889 14.38C40.9889 14.38 41.4089 14.84 41.4089 16.4V23H44.9689V15.96C44.9689 13.12 43.9089 11.34 41.4289 11.34C39.8889 11.34 38.7289 12.12 37.7889 13.04H37.7089L37.4689 11.62H34.5689V23ZM51.813 23.28C52.893 23.28 53.993 22.7 54.793 21.9H54.873L55.133 23H58.033V7.02H54.453V10.82L54.593 12.52C53.853 11.8 53.113 11.34 51.853 11.34C49.493 11.34 47.153 13.58 47.153 17.32C47.153 21.02 48.973 23.28 51.813 23.28ZM52.753 20.36C51.533 20.36 50.813 19.44 50.813 17.26C50.813 15.16 51.713 14.24 52.693 14.24C53.293 14.24 53.913 14.42 54.453 14.92V19.4C53.973 20.14 53.433 20.36 52.753 20.36ZM65.837 23.28C68.717 23.28 71.397 21.08 71.397 17.32C71.397 13.54 68.717 11.34 65.837 11.34C62.937 11.34 60.257 13.54 60.257 17.32C60.257 21.08 62.937 23.28 65.837 23.28ZM65.837 20.4C64.497 20.4 63.897 19.2 63.897 17.32C63.897 15.42 64.497 14.22 65.837 14.22C67.157 14.22 67.757 15.42 67.757 17.32C67.757 19.2 67.157 20.4 65.837 20.4ZM88.0542 7.14C87.5542 6.94 86.7342 6.74 85.7342 6.74C82.5742 6.74 81.4342 8.78 81.4342 11.18V11.62H77.6742V11.22C77.6742 10.2 78.2542 9.74 78.9742 9.74C79.5942 9.74 79.9342 9.84 80.2942 10L80.9342 7.38C80.3942 7.16 79.5142 6.96 78.5142 6.96C75.3342 6.96 74.1142 8.92 74.1142 11.24V11.64L72.5942 11.76V14.4H74.1142V23H77.6742V14.4H81.4342V23H84.9942V14.4H87.0142V11.62H84.9942V11.08C84.9942 9.94 85.4742 9.52 86.2542 9.52C86.6342 9.52 87.0542 9.62 87.4142 9.76L88.0542 7.14Z" fill="white"/>
<path d="M2 10.5C2 9.30653 2.47411 8.16193 3.31802 7.31802C4.16193 6.47411 5.30653 6 6.5 6C7.69347 6 8.83807 6.47411 9.68198 7.31802C10.5259 8.16193 11 9.30653 11 10.5C11 11.6935 10.5259 12.8381 9.68198 13.682C8.83807 14.5259 7.69347 15 6.5 15C5.30653 15 4.16193 14.5259 3.31802 13.682C2.47411 12.8381 2 11.6935 2 10.5Z" fill="white"/>
<path d="M11 10.5C11 9.30653 11.4741 8.16193 12.318 7.31802C13.1619 6.47411 14.3065 6 15.5 6C16.6935 6 17.8381 6.47411 18.682 7.31802C19.5259 8.16193 20 9.30653 20 10.5C20 11.6935 19.5259 12.8381 18.682 13.682C17.8381 14.5259 16.6935 15 15.5 15C14.3065 15 13.1619 14.5259 12.318 13.682C11.4741 12.8381 11 11.6935 11 10.5Z" fill="white"/>
<path d="M2 19.5C2 18.3065 2.47411 17.1619 3.31802 16.318C4.16193 15.4741 5.30653 15 6.5 15C7.69347 15 8.83807 15.4741 9.68198 16.318C10.5259 17.1619 11 18.3065 11 19.5C11 20.6935 10.5259 21.8381 9.68198 22.682C8.83807 23.5259 7.69347 24 6.5 24C5.30653 24 4.16193 23.5259 3.31802 22.682C2.47411 21.8381 2 20.6935 2 19.5Z" fill="white"/>
<path d="M11 19.5C11 18.3065 11.4741 17.1619 12.318 16.318C13.1619 15.4741 14.3065 15 15.5 15C16.6935 15 17.8381 15.4741 18.682 16.318C19.5259 17.1619 20 18.3065 20 19.5C20 20.6935 19.5259 21.8381 18.682 22.682C17.8381 23.5259 16.6935 24 15.5 24C14.3065 24 13.1619 23.5259 12.318 22.682C11.4741 21.8381 11 20.6935 11 19.5Z" fill="white"/>
</svg>
