<svg width="89" height="30" viewBox="0 0 89 30" fill="none" xmlns="http://www.w3.org/2000/svg">
<path d="M25.32 23.28C26.58 23.28 27.64 22.7 28.58 21.86H28.66L28.92 23H31.82V16.54C31.82 12.98 30.16 11.34 27.22 11.34C25.44 11.34 23.82 11.94 22.32 12.84L23.56 15.18C24.7 14.54 25.64 14.18 26.54 14.18C27.7 14.18 28.18 14.72 28.26 15.64C23.82 16.12 21.94 17.42 21.94 19.82C21.94 21.72 23.22 23.28 25.32 23.28ZM26.54 20.52C25.8 20.52 25.32 20.2 25.32 19.54C25.32 18.74 26.04 18.1 28.26 17.8V19.62C27.74 20.18 27.26 20.52 26.54 20.52ZM34.5689 23H38.1089V15.4C38.8089 14.74 39.2889 14.38 40.0889 14.38C40.9889 14.38 41.4089 14.84 41.4089 16.4V23H44.9689V15.96C44.9689 13.12 43.9089 11.34 41.4289 11.34C39.8889 11.34 38.7289 12.12 37.7889 13.04H37.7089L37.4689 11.62H34.5689V23ZM51.813 23.28C52.893 23.28 53.993 22.7 54.793 21.9H54.873L55.133 23H58.033V7.02H54.453V10.82L54.593 12.52C53.853 11.8 53.113 11.34 51.853 11.34C49.493 11.34 47.153 13.58 47.153 17.32C47.153 21.02 48.973 23.28 51.813 23.28ZM52.753 20.36C51.533 20.36 50.813 19.44 50.813 17.26C50.813 15.16 51.713 14.24 52.693 14.24C53.293 14.24 53.913 14.42 54.453 14.92V19.4C53.973 20.14 53.433 20.36 52.753 20.36ZM65.837 23.28C68.717 23.28 71.397 21.08 71.397 17.32C71.397 13.54 68.717 11.34 65.837 11.34C62.937 11.34 60.257 13.54 60.257 17.32C60.257 21.08 62.937 23.28 65.837 23.28ZM65.837 20.4C64.497 20.4 63.897 19.2 63.897 17.32C63.897 15.42 64.497 14.22 65.837 14.22C67.157 14.22 67.757 15.42 67.757 17.32C67.757 19.2 67.157 20.4 65.837 20.4ZM88.0542 7.14C87.5542 6.94 86.7342 6.74 85.7342 6.74C82.5742 6.74 81.4342 8.78 81.4342 11.18V11.62H77.6742V11.22C77.6742 10.2 78.2542 9.74 78.9742 9.74C79.5942 9.74 79.9342 9.84 80.2942 10L80.9342 7.38C80.3942 7.16 79.5142 6.96 78.5142 6.96C75.3342 6.96 74.1142 8.92 74.1142 11.24V11.64L72.5942 11.76V14.4H74.1142V23H77.6742V14.4H81.4342V23H84.9942V14.4H87.0142V11.62H84.9942V11.08C84.9942 9.94 85.4742 9.52 86.2542 9.52C86.6342 9.52 87.0542 9.62 87.4142 9.76L88.0542 7.14Z" fill="white"/>
<path d="M7.17157 6C8.73367 6 10 7.26633 10 8.82843V12V18V20C10 22.2091 8.20914 24 6 24C3.79086 24 2 22.2091 2 20V11.6569C2 10.596 2.42143 9.57857 3.17157 8.82843L5.17157 6.82843C5.70201 6.29799 6.42143 6 7.17157 6Z" fill="white" fill-opacity="0.36"/>
<path d="M12 10C12 7.79086 13.7909 6 16 6C18.2091 6 20 7.79086 20 10V20C20 22.2091 18.2091 24 16 24C13.7909 24 12 22.2091 12 20V18V12V10Z" fill="white" fill-opacity="0.36"/>
<path d="M12 12H10V18H12V12Z" fill="white" fill-opacity="0.36"/>
<rect x="12" y="6" width="8" height="8" rx="2" fill="white"/>
<path d="M10 12V8C10 6.89543 9.10457 6 8 6H6.82843C6.29799 6 5.78929 6.21071 5.41421 6.58579L2.58579 9.41421C2.21071 9.78929 2 10.298 2 10.8284V12C2 13.1046 2.89543 14 4 14H8C9.10457 14 10 13.1046 10 12Z" fill="white"/>
<circle cx="6" cy="20" r="4" fill="white"/>
<circle cx="16" cy="20" r="4" fill="white"/>
</svg>
