<svg width="87" height="30" viewBox="0 0 87 30" fill="none" xmlns="http://www.w3.org/2000/svg">
<path d="M23.32 23.28C24.58 23.28 25.64 22.7 26.58 21.86H26.66L26.92 23H29.82V16.54C29.82 12.98 28.16 11.34 25.22 11.34C23.44 11.34 21.82 11.94 20.32 12.84L21.56 15.18C22.7 14.54 23.64 14.18 24.54 14.18C25.7 14.18 26.18 14.72 26.26 15.64C21.82 16.12 19.94 17.42 19.94 19.82C19.94 21.72 21.22 23.28 23.32 23.28ZM24.54 20.52C23.8 20.52 23.32 20.2 23.32 19.54C23.32 18.74 24.04 18.1 26.26 17.8V19.62C25.74 20.18 25.26 20.52 24.54 20.52ZM32.5689 23H36.1089V15.4C36.8089 14.74 37.2889 14.38 38.0889 14.38C38.9889 14.38 39.4089 14.84 39.4089 16.4V23H42.9689V15.96C42.9689 13.12 41.9089 11.34 39.4289 11.34C37.8889 11.34 36.7289 12.12 35.7889 13.04H35.7089L35.4689 11.62H32.5689V23ZM49.813 23.28C50.893 23.28 51.993 22.7 52.793 21.9H52.873L53.133 23H56.033V7.02H52.453V10.82L52.593 12.52C51.853 11.8 51.113 11.34 49.853 11.34C47.493 11.34 45.153 13.58 45.153 17.32C45.153 21.02 46.973 23.28 49.813 23.28ZM50.753 20.36C49.533 20.36 48.813 19.44 48.813 17.26C48.813 15.16 49.713 14.24 50.693 14.24C51.293 14.24 51.913 14.42 52.453 14.92V19.4C51.973 20.14 51.433 20.36 50.753 20.36ZM63.837 23.28C66.717 23.28 69.397 21.08 69.397 17.32C69.397 13.54 66.717 11.34 63.837 11.34C60.937 11.34 58.257 13.54 58.257 17.32C58.257 21.08 60.937 23.28 63.837 23.28ZM63.837 20.4C62.497 20.4 61.897 19.2 61.897 17.32C61.897 15.42 62.497 14.22 63.837 14.22C65.157 14.22 65.757 15.42 65.757 17.32C65.757 19.2 65.157 20.4 63.837 20.4ZM86.0542 7.14C85.5542 6.94 84.7342 6.74 83.7342 6.74C80.5742 6.74 79.4342 8.78 79.4342 11.18V11.62H75.6742V11.22C75.6742 10.2 76.2542 9.74 76.9742 9.74C77.5942 9.74 77.9342 9.84 78.2942 10L78.9342 7.38C78.3942 7.16 77.5142 6.96 76.5142 6.96C73.3342 6.96 72.1142 8.92 72.1142 11.24V11.64L70.5942 11.76V14.4H72.1142V23H75.6742V14.4H79.4342V23H82.9942V14.4H85.0142V11.62H82.9942V11.08C82.9942 9.94 83.4742 9.52 84.2542 9.52C84.6342 9.52 85.0542 9.62 85.4142 9.76L86.0542 7.14Z" fill="white"/>
<path d="M0 10.5C0 9.30653 0.474106 8.16193 1.31802 7.31802C2.16193 6.47411 3.30653 6 4.5 6C5.69347 6 6.83807 6.47411 7.68198 7.31802C8.52589 8.16193 9 9.30653 9 10.5C9 11.6935 8.52589 12.8381 7.68198 13.682C6.83807 14.5259 5.69347 15 4.5 15C3.30653 15 2.16193 14.5259 1.31802 13.682C0.474106 12.8381 0 11.6935 0 10.5Z" fill="#F24E1E"/>
<path d="M9 10.5C9 9.30653 9.47411 8.16193 10.318 7.31802C11.1619 6.47411 12.3065 6 13.5 6C14.6935 6 15.8381 6.47411 16.682 7.31802C17.5259 8.16193 18 9.30653 18 10.5C18 11.6935 17.5259 12.8381 16.682 13.682C15.8381 14.5259 14.6935 15 13.5 15C12.3065 15 11.1619 14.5259 10.318 13.682C9.47411 12.8381 9 11.6935 9 10.5Z" fill="#FF7262"/>
<path d="M0 19.5C0 18.3065 0.474106 17.1619 1.31802 16.318C2.16193 15.4741 3.30653 15 4.5 15C5.69347 15 6.83807 15.4741 7.68198 16.318C8.52589 17.1619 9 18.3065 9 19.5C9 20.6935 8.52589 21.8381 7.68198 22.682C6.83807 23.5259 5.69347 24 4.5 24C3.30653 24 2.16193 23.5259 1.31802 22.682C0.474106 21.8381 0 20.6935 0 19.5Z" fill="#A259FF"/>
<path d="M9 19.5C9 18.3065 9.47411 17.1619 10.318 16.318C11.1619 15.4741 12.3065 15 13.5 15C14.6935 15 15.8381 15.4741 16.682 16.318C17.5259 17.1619 18 18.3065 18 19.5C18 20.6935 17.5259 21.8381 16.682 22.682C15.8381 23.5259 14.6935 24 13.5 24C12.3065 24 11.1619 23.5259 10.318 22.682C9.47411 21.8381 9 20.6935 9 19.5Z" fill="#19BCFE"/>
</svg>
