<svg width="52" height="26" viewBox="0 0 52 26" fill="none" xmlns="http://www.w3.org/2000/svg">
<g opacity="0.65">
<rect x="0.5" y="0.5" width="51" height="25" rx="1.5" fill="#2A2A2A" stroke="#555555"/>
<path d="M18.564 14.912C18.204 15.008 17.844 15.092 17.472 15.176V8.48H18.396V9.152H18.876C19.044 11.168 19.572 13.028 20.46 14.732C19.812 15.812 19.008 16.724 18.036 17.492L18.624 18.164C19.524 17.456 20.292 16.592 20.94 15.584C21.492 16.484 22.164 17.348 22.968 18.176L23.544 17.516C22.692 16.688 21.972 15.776 21.396 14.792C22.224 13.22 22.776 11.324 23.04 9.104V8.312H18.396V7.664H12.684V8.48H13.632V15.908C13.272 15.956 12.912 16.016 12.552 16.064L12.756 16.904C14.1 16.712 15.384 16.484 16.632 16.22V18.2H17.472V16.028C17.832 15.944 18.192 15.86 18.564 15.764V14.912ZM19.668 9.152H22.224C22.008 10.94 21.564 12.512 20.916 13.88C20.232 12.452 19.812 10.88 19.668 9.152ZM16.632 15.368C15.924 15.512 15.204 15.656 14.472 15.776V13.736H16.632V15.368ZM14.472 12.956V11.132H16.632V12.956H14.472ZM14.472 10.34V8.48H16.632V10.34H14.472ZM35.1481 7.232V10.508H32.5801V18.14H33.4441V15.572H37.7761V16.748C37.7761 17.12 37.5841 17.312 37.2121 17.312L35.8681 17.288L36.0961 18.128H37.5001C38.2441 18.128 38.6281 17.732 38.6281 16.94V10.508H36.0361V7.232H35.1481ZM33.4441 13.46H37.7761V14.828H33.4441V13.46ZM37.7761 12.716H33.4441V11.336H37.7761V12.716ZM32.7601 7.544L32.0401 7.892C32.5201 8.492 32.9641 9.176 33.3721 9.932L34.0681 9.596C33.6481 8.852 33.2161 8.168 32.7601 7.544ZM38.4361 7.484C38.1001 8.204 37.6321 8.936 37.0561 9.68L37.7401 10.028C38.3161 9.32 38.7841 8.588 39.1441 7.82L38.4361 7.484ZM30.7921 13.424C30.2161 14.888 29.5561 16.316 28.7881 17.72L29.5801 18.068C30.3001 16.712 30.9481 15.26 31.5481 13.724L30.7921 13.424ZM29.6161 7.376L29.0041 7.964C29.8921 8.612 30.5881 9.212 31.0921 9.788L31.7041 9.176C31.1401 8.576 30.4441 7.976 29.6161 7.376ZM29.2681 10.196L28.6561 10.784C29.4961 11.432 30.1441 12.044 30.6241 12.608L31.2361 11.996C30.7081 11.396 30.0601 10.796 29.2681 10.196Z" fill="#CCCCCC"/>
</g>
</svg>
