<svg width="52" height="26" viewBox="0 0 52 26" fill="none" xmlns="http://www.w3.org/2000/svg">
<rect width="52" height="26" rx="2" fill="#005BE3"/>
<path d="M18.288 13.04H19.836V14.576H18.276C18.276 14.468 18.288 14.36 18.288 14.264V13.04ZM18.216 15.332H19.836V17.984H20.616V15.332H22.224V16.94C22.224 17.18 22.104 17.312 21.864 17.312C21.6 17.312 21.324 17.288 21.024 17.264L21.228 18.044H22.116C22.728 18.044 23.04 17.768 23.04 17.228V10.04H21.024C21.384 9.68 21.744 9.224 22.104 8.696V8.084H19.212C19.332 7.844 19.464 7.604 19.584 7.352L18.756 7.172C18.144 8.42 17.364 9.44 16.416 10.22L16.956 10.856C17.124 10.712 17.304 10.544 17.484 10.376V14.312C17.46 15.632 17.16 16.736 16.56 17.6L17.184 18.164C17.736 17.396 18.072 16.46 18.216 15.332ZM20.088 10.04H17.808C18.144 9.668 18.468 9.26 18.768 8.816H21.108C20.772 9.272 20.436 9.68 20.088 10.04ZM22.224 14.576H20.616V13.04H22.224V14.576ZM22.224 12.272H20.616V10.808H22.224V12.272ZM19.836 10.808V12.272H18.288V10.808H19.836ZM12.804 7.868V8.708H14.16C13.884 10.448 13.32 11.996 12.456 13.352L12.96 14.156C13.176 13.82 13.392 13.472 13.596 13.1V17.804H14.412V16.892H16.512V11.432H14.328C14.616 10.592 14.844 9.68 15 8.708H16.812V7.868H12.804ZM14.412 16.112V12.224H15.72V16.112H14.412ZM30.4801 10.76V11.576H33.6241V16.808C33.5041 16.784 33.3841 16.748 33.2761 16.712C32.4121 16.436 31.6921 15.788 31.1161 14.756C31.3321 14.132 31.5241 13.448 31.6681 12.704L30.8281 12.56C30.4201 14.624 29.6521 16.268 28.5001 17.492L29.0521 18.176C29.7361 17.48 30.3121 16.616 30.7801 15.584C31.2721 16.364 31.9201 16.94 32.7121 17.312C33.7681 17.756 35.4961 17.984 37.9201 17.984H39.2641L39.4201 17.12C38.7721 17.168 38.1481 17.192 37.5361 17.192C36.3361 17.18 35.3281 17.108 34.4881 16.988V14.504H38.0641V13.688H34.4881V11.576H37.5361V10.76H30.4801ZM38.9041 8.42H34.5481C34.3801 7.928 34.1881 7.484 33.9961 7.088L33.0721 7.232C33.2881 7.592 33.4921 7.988 33.6721 8.42H29.0881V11.036H29.9281V9.212H38.0641V10.976H38.9041V8.42Z" fill="white"/>
</svg>
