<svg width="168" height="26" viewBox="0 0 168 26" fill="none" xmlns="http://www.w3.org/2000/svg">
<rect x="0.5" y="0.5" width="167" height="25" rx="1.5" fill="#242424" stroke="#0066FF"/>
<path d="M8.94 10.628C8.244 10.628 7.668 10.784 7.236 11.096C6.768 11.408 6.54 11.816 6.54 12.344C6.54 12.872 6.768 13.268 7.248 13.556C7.536 13.748 8.052 13.928 8.784 14.108C9.456 14.276 9.9 14.408 10.104 14.504C10.488 14.696 10.692 14.96 10.692 15.308C10.692 16.004 10.128 16.364 9.024 16.364C8.496 16.364 8.1 16.268 7.836 16.076C7.572 15.86 7.392 15.512 7.32 15.02H6.384C6.528 16.448 7.416 17.168 9.048 17.168C10.8 17.168 11.676 16.52 11.676 15.248C11.676 14.708 11.424 14.288 10.932 13.976C10.608 13.772 10.08 13.58 9.336 13.4C8.712 13.232 8.28 13.1 8.052 12.992C7.692 12.812 7.524 12.584 7.524 12.32C7.524 12.044 7.656 11.828 7.92 11.672C8.16 11.504 8.496 11.432 8.928 11.432C9.42 11.432 9.804 11.528 10.068 11.72C10.308 11.888 10.464 12.176 10.548 12.56H11.484C11.316 11.264 10.476 10.628 8.94 10.628ZM15.5746 10.628C14.6386 10.628 13.9066 10.94 13.3546 11.588C12.8266 12.2 12.5626 12.968 12.5626 13.904C12.5626 14.828 12.8266 15.596 13.3546 16.196C13.9066 16.844 14.6386 17.168 15.5746 17.168C16.4986 17.168 17.2426 16.844 17.8066 16.196C18.3226 15.596 18.5866 14.828 18.5866 13.904C18.5866 12.968 18.3226 12.2 17.7946 11.588C17.2426 10.94 16.4986 10.628 15.5746 10.628ZM15.5746 11.432C16.2226 11.432 16.7386 11.684 17.1226 12.188C17.4466 12.644 17.6146 13.208 17.6146 13.904C17.6146 14.576 17.4466 15.152 17.1226 15.608C16.7386 16.112 16.2226 16.364 15.5746 16.364C14.9146 16.364 14.3986 16.112 14.0386 15.608C13.7026 15.152 13.5466 14.588 13.5466 13.904C13.5466 13.208 13.7026 12.644 14.0386 12.188C14.3986 11.684 14.9146 11.432 15.5746 11.432ZM22.5458 10.628C21.8498 10.628 21.2618 10.952 20.7938 11.624V10.796H19.8338V17H20.7938V13.22C20.7938 12.728 20.9378 12.308 21.2258 11.972C21.5138 11.612 21.8738 11.444 22.3178 11.444C23.2658 11.444 23.7458 11.984 23.7458 13.088V17H24.7058V13.112C24.7058 12.608 24.8378 12.212 25.1258 11.9C25.3898 11.588 25.7378 11.444 26.1458 11.444C26.6738 11.444 27.0578 11.576 27.2978 11.864C27.5258 12.128 27.6458 12.536 27.6458 13.088V17H28.6058V12.932C28.6058 12.224 28.4018 11.66 28.0178 11.24C27.6098 10.832 27.0938 10.628 26.4458 10.628C26.0138 10.628 25.6538 10.724 25.3538 10.916C25.0178 11.096 24.7298 11.396 24.4898 11.804C24.1418 11.012 23.4938 10.628 22.5458 10.628ZM32.6555 10.628C31.7555 10.628 31.0475 10.952 30.5195 11.6C29.9915 12.212 29.7395 12.98 29.7395 13.892C29.7395 14.9 30.0035 15.692 30.5555 16.292C31.0835 16.868 31.8035 17.168 32.6915 17.168C33.4955 17.168 34.1555 16.928 34.6715 16.472C35.0915 16.088 35.3675 15.608 35.5115 15.008H34.5515C34.3955 15.44 34.1915 15.764 33.9275 15.98C33.6155 16.232 33.1955 16.364 32.6915 16.364C32.1035 16.364 31.6355 16.172 31.2995 15.788C30.9635 15.404 30.7835 14.864 30.7355 14.168H35.6315C35.6075 13.088 35.3675 12.236 34.9115 11.636C34.4075 10.964 33.6515 10.628 32.6555 10.628ZM32.6795 11.432C33.8555 11.432 34.5155 12.092 34.6355 13.424H30.7595C30.8195 12.812 31.0115 12.332 31.3475 11.972C31.6835 11.612 32.1275 11.432 32.6795 11.432ZM38.4117 8.792L37.4637 9.188V10.796H36.2157V11.6H37.4637V15.548C37.4637 16.016 37.5597 16.364 37.7637 16.604C37.9797 16.868 38.3517 17 38.8557 17H39.7917V16.196H38.9997C38.7837 16.196 38.6277 16.136 38.5437 16.04C38.4477 15.944 38.4117 15.776 38.4117 15.548V11.6H39.9477V10.796H38.4117V8.792ZM41.0213 8.264V17H41.9813V13.46C41.9813 12.884 42.1373 12.392 42.4613 12.008C42.7733 11.624 43.1693 11.432 43.6493 11.432C44.1653 11.432 44.5613 11.588 44.8493 11.9C45.1133 12.212 45.2573 12.656 45.2573 13.232V17H46.2173V13.088C46.2173 12.296 46.0253 11.684 45.6413 11.264C45.2573 10.832 44.6933 10.628 43.9733 10.628C43.5533 10.628 43.1813 10.724 42.8453 10.916C42.4853 11.12 42.1973 11.42 41.9813 11.816V8.264H41.0213ZM48.4813 8.456C48.2773 8.456 48.1093 8.516 47.9653 8.66C47.8213 8.78 47.7613 8.948 47.7613 9.164C47.7613 9.368 47.8213 9.536 47.9653 9.68C48.1093 9.812 48.2773 9.884 48.4813 9.884C48.6853 9.884 48.8533 9.812 48.9973 9.68C49.1413 9.536 49.2133 9.368 49.2133 9.164C49.2133 8.948 49.1413 8.78 48.9973 8.66C48.8533 8.516 48.6853 8.456 48.4813 8.456ZM48.0013 10.796V17H48.9613V10.796H48.0013ZM53.6636 10.628C53.2556 10.628 52.8836 10.724 52.5476 10.916C52.2116 11.096 51.9356 11.36 51.7196 11.708V10.796H50.7596V17H51.7196V13.256C51.7556 12.692 51.9356 12.248 52.2716 11.912C52.5836 11.6 52.9556 11.444 53.3876 11.444C54.4676 11.444 55.0196 12.044 55.0196 13.256V17H55.9796V13.184C55.9796 11.48 55.1996 10.628 53.6636 10.628ZM60.0188 10.628C59.1548 10.628 58.4708 10.928 57.9668 11.54C57.4628 12.116 57.2228 12.848 57.2228 13.76C57.2228 14.66 57.4628 15.392 57.9668 15.968C58.4708 16.556 59.1548 16.856 60.0188 16.856C60.9548 16.856 61.6508 16.436 62.1068 15.608V16.7C62.1068 18.068 61.4828 18.764 60.2348 18.764C59.6708 18.764 59.2508 18.656 58.9748 18.452C58.6988 18.26 58.5188 17.948 58.4468 17.528H57.4868C57.5948 18.2 57.8708 18.704 58.3148 19.04C58.7468 19.376 59.3948 19.544 60.2348 19.544C62.1188 19.544 63.0668 18.548 63.0668 16.568V10.796H62.1068V11.864C61.6508 11.036 60.9548 10.628 60.0188 10.628ZM60.1628 11.42C60.7748 11.42 61.2548 11.636 61.6148 12.092C61.9508 12.5 62.1188 13.064 62.1188 13.76C62.1188 14.432 61.9508 14.984 61.6148 15.404C61.2548 15.836 60.7748 16.052 60.1508 16.052C59.4788 16.052 58.9868 15.812 58.6508 15.356C58.3508 14.948 58.2068 14.408 58.2068 13.76C58.2068 13.064 58.3748 12.5 58.7108 12.092C59.0588 11.636 59.5388 11.42 60.1628 11.42ZM71.2247 10.628C70.3007 10.628 69.5687 10.952 69.0407 11.612C68.5487 12.212 68.3087 12.98 68.3087 13.928C68.3087 14.876 68.5487 15.644 69.0407 16.232C69.5567 16.856 70.2767 17.168 71.2127 17.168C71.9807 17.168 72.5927 16.964 73.0607 16.568C73.5407 16.16 73.8407 15.548 73.9847 14.756H73.0247C72.8807 15.824 72.2687 16.364 71.2127 16.364C70.5887 16.364 70.1087 16.136 69.7847 15.704C69.4487 15.272 69.2927 14.672 69.2927 13.916C69.2927 13.16 69.4607 12.56 69.7967 12.116C70.1447 11.66 70.6247 11.432 71.2247 11.432C71.7167 11.432 72.1127 11.54 72.4247 11.78C72.7247 12.02 72.9167 12.38 73.0007 12.86H73.9487C73.8407 12.104 73.5527 11.54 73.0727 11.168C72.6047 10.808 71.9927 10.628 71.2247 10.628ZM77.8832 10.628C76.9472 10.628 76.2152 10.94 75.6632 11.588C75.1352 12.2 74.8712 12.968 74.8712 13.904C74.8712 14.828 75.1352 15.596 75.6632 16.196C76.2152 16.844 76.9472 17.168 77.8832 17.168C78.8072 17.168 79.5512 16.844 80.1152 16.196C80.6312 15.596 80.8952 14.828 80.8952 13.904C80.8952 12.968 80.6312 12.2 80.1032 11.588C79.5512 10.94 78.8072 10.628 77.8832 10.628ZM77.8832 11.432C78.5312 11.432 79.0472 11.684 79.4312 12.188C79.7552 12.644 79.9232 13.208 79.9232 13.904C79.9232 14.576 79.7552 15.152 79.4312 15.608C79.0472 16.112 78.5312 16.364 77.8832 16.364C77.2232 16.364 76.7072 16.112 76.3472 15.608C76.0112 15.152 75.8552 14.588 75.8552 13.904C75.8552 13.208 76.0112 12.644 76.3472 12.188C76.7072 11.684 77.2232 11.432 77.8832 11.432ZM84.9144 10.628C83.9784 10.628 83.2464 10.94 82.6944 11.588C82.1664 12.2 81.9024 12.968 81.9024 13.904C81.9024 14.828 82.1664 15.596 82.6944 16.196C83.2464 16.844 83.9784 17.168 84.9144 17.168C85.8384 17.168 86.5824 16.844 87.1464 16.196C87.6624 15.596 87.9264 14.828 87.9264 13.904C87.9264 12.968 87.6624 12.2 87.1344 11.588C86.5824 10.94 85.8384 10.628 84.9144 10.628ZM84.9144 11.432C85.5624 11.432 86.0784 11.684 86.4624 12.188C86.7864 12.644 86.9544 13.208 86.9544 13.904C86.9544 14.576 86.7864 15.152 86.4624 15.608C86.0784 16.112 85.5624 16.364 84.9144 16.364C84.2544 16.364 83.7384 16.112 83.3784 15.608C83.0424 15.152 82.8864 14.588 82.8864 13.904C82.8864 13.208 83.0424 12.644 83.3784 12.188C83.7384 11.684 84.2544 11.432 84.9144 11.432ZM89.3657 8.264V17H90.3137V8.264H89.3657Z" fill="#CCCCCC"/>
</svg>
