<svg width="168" height="26" viewBox="0 0 168 26" fill="none" xmlns="http://www.w3.org/2000/svg">
<g opacity="0.65">
<rect x="0.5" y="0.5" width="167" height="25" rx="1.5" fill="#242424" stroke="#555555"/>
<path d="M9.708 10.628C8.772 10.628 8.088 11.024 7.644 11.816V10.796H6.744V19.376H7.704V15.872C8.184 16.736 8.868 17.168 9.756 17.168C10.644 17.168 11.328 16.832 11.832 16.184C12.288 15.584 12.528 14.828 12.528 13.916C12.528 12.98 12.288 12.224 11.82 11.624C11.304 10.952 10.596 10.628 9.708 10.628ZM9.588 11.42C10.248 11.42 10.752 11.66 11.1 12.164C11.388 12.596 11.544 13.184 11.544 13.916C11.544 14.66 11.388 15.248 11.076 15.68C10.728 16.136 10.224 16.376 9.552 16.376C8.976 16.376 8.532 16.148 8.196 15.716C7.836 15.272 7.668 14.696 7.668 13.976V13.856C7.668 13.16 7.824 12.584 8.136 12.152C8.472 11.66 8.964 11.42 9.588 11.42ZM13.9673 8.264V17H14.9153V8.264H13.9673ZM19.2995 10.628C18.5555 10.628 17.9675 10.772 17.5115 11.06C17.0075 11.372 16.6835 11.864 16.5515 12.512L17.4995 12.584C17.5955 12.188 17.7995 11.888 18.1235 11.696C18.4115 11.504 18.7835 11.42 19.2395 11.42C20.3195 11.42 20.8595 11.936 20.8595 12.98V13.304L19.3715 13.328C18.4355 13.34 17.7155 13.52 17.2115 13.856C16.6355 14.216 16.3595 14.744 16.3595 15.452C16.3595 15.956 16.5515 16.376 16.9355 16.7C17.3075 17.012 17.7995 17.168 18.4235 17.168C18.9995 17.168 19.5155 17.036 19.9715 16.784C20.3555 16.568 20.6795 16.292 20.9195 15.956V17H21.8195V13.016C21.8195 12.296 21.6275 11.732 21.2675 11.324C20.8355 10.856 20.1875 10.628 19.2995 10.628ZM20.8595 14.024V14.552C20.8595 15.032 20.6315 15.464 20.1875 15.836C19.7315 16.22 19.2155 16.412 18.6275 16.412C18.2435 16.412 17.9315 16.316 17.6915 16.136C17.4515 15.944 17.3435 15.716 17.3435 15.428C17.3435 14.528 18.0395 14.072 19.4315 14.048L20.8595 14.024ZM25.9786 10.628C25.0546 10.628 24.3226 10.952 23.7946 11.612C23.3026 12.212 23.0626 12.98 23.0626 13.928C23.0626 14.876 23.3026 15.644 23.7946 16.232C24.3106 16.856 25.0306 17.168 25.9666 17.168C26.7346 17.168 27.3466 16.964 27.8146 16.568C28.2946 16.16 28.5946 15.548 28.7386 14.756H27.7786C27.6346 15.824 27.0226 16.364 25.9666 16.364C25.3426 16.364 24.8626 16.136 24.5386 15.704C24.2026 15.272 24.0466 14.672 24.0466 13.916C24.0466 13.16 24.2146 12.56 24.5506 12.116C24.8986 11.66 25.3786 11.432 25.9786 11.432C26.4706 11.432 26.8666 11.54 27.1786 11.78C27.4786 12.02 27.6706 12.38 27.7546 12.86H28.7026C28.5946 12.104 28.3066 11.54 27.8266 11.168C27.3586 10.808 26.7466 10.628 25.9786 10.628ZM32.4211 10.628C31.5211 10.628 30.8131 10.952 30.2851 11.6C29.7571 12.212 29.5051 12.98 29.5051 13.892C29.5051 14.9 29.7691 15.692 30.3211 16.292C30.8491 16.868 31.5691 17.168 32.4571 17.168C33.2611 17.168 33.9211 16.928 34.4371 16.472C34.8571 16.088 35.1331 15.608 35.2771 15.008H34.3171C34.1611 15.44 33.9571 15.764 33.6931 15.98C33.3811 16.232 32.9611 16.364 32.4571 16.364C31.8691 16.364 31.4011 16.172 31.0651 15.788C30.7291 15.404 30.5491 14.864 30.5011 14.168H35.3971C35.3731 13.088 35.1331 12.236 34.6771 11.636C34.1731 10.964 33.4171 10.628 32.4211 10.628ZM32.4451 11.432C33.6211 11.432 34.2811 12.092 34.4011 13.424H30.5251C30.5851 12.812 30.7771 12.332 31.1131 11.972C31.4491 11.612 31.8931 11.432 32.4451 11.432ZM36.5213 8.264V17H37.4813V13.46C37.4813 12.884 37.6373 12.392 37.9613 12.008C38.2733 11.624 38.6693 11.432 39.1493 11.432C39.6653 11.432 40.0613 11.588 40.3493 11.9C40.6133 12.212 40.7573 12.656 40.7573 13.232V17H41.7173V13.088C41.7173 12.296 41.5253 11.684 41.1413 11.264C40.7573 10.832 40.1933 10.628 39.4733 10.628C39.0533 10.628 38.6813 10.724 38.3453 10.916C37.9853 11.12 37.6973 11.42 37.4813 11.816V8.264H36.5213ZM45.9613 10.628C45.0253 10.628 44.2933 10.94 43.7413 11.588C43.2133 12.2 42.9493 12.968 42.9493 13.904C42.9493 14.828 43.2133 15.596 43.7413 16.196C44.2933 16.844 45.0253 17.168 45.9613 17.168C46.8853 17.168 47.6293 16.844 48.1933 16.196C48.7093 15.596 48.9733 14.828 48.9733 13.904C48.9733 12.968 48.7093 12.2 48.1813 11.588C47.6293 10.94 46.8853 10.628 45.9613 10.628ZM45.9613 11.432C46.6093 11.432 47.1253 11.684 47.5093 12.188C47.8333 12.644 48.0013 13.208 48.0013 13.904C48.0013 14.576 47.8333 15.152 47.5093 15.608C47.1253 16.112 46.6093 16.364 45.9613 16.364C45.3013 16.364 44.7853 16.112 44.4253 15.608C44.0893 15.152 43.9333 14.588 43.9333 13.904C43.9333 13.208 44.0893 12.644 44.4253 12.188C44.7853 11.684 45.3013 11.432 45.9613 11.432ZM50.4126 8.264V17H51.3606V8.264H50.4126ZM57.6288 8.264V11.936C57.1488 11.06 56.4648 10.628 55.5768 10.628C54.6888 10.628 54.0048 10.952 53.5008 11.624C53.0328 12.224 52.8048 12.968 52.8048 13.88C52.8048 14.816 53.0328 15.584 53.5008 16.184C54.0048 16.832 54.7128 17.168 55.6248 17.168C56.5608 17.168 57.2568 16.772 57.6888 15.98V17H58.5888V8.264H57.6288ZM55.7808 11.42C56.3328 11.42 56.7888 11.636 57.1368 12.092C57.4728 12.536 57.6528 13.124 57.6528 13.844V13.964C57.6528 14.66 57.4968 15.224 57.1968 15.656C56.8488 16.136 56.3688 16.376 55.7448 16.376C55.0728 16.376 54.5688 16.124 54.2328 15.644C53.9328 15.212 53.7888 14.624 53.7888 13.88C53.7888 13.136 53.9328 12.56 54.2448 12.14C54.5808 11.66 55.0968 11.42 55.7808 11.42ZM62.632 10.628C61.732 10.628 61.024 10.952 60.496 11.6C59.968 12.212 59.716 12.98 59.716 13.892C59.716 14.9 59.98 15.692 60.532 16.292C61.06 16.868 61.78 17.168 62.668 17.168C63.472 17.168 64.132 16.928 64.648 16.472C65.068 16.088 65.344 15.608 65.488 15.008H64.528C64.372 15.44 64.168 15.764 63.904 15.98C63.592 16.232 63.172 16.364 62.668 16.364C62.08 16.364 61.612 16.172 61.276 15.788C60.94 15.404 60.76 14.864 60.712 14.168H65.608C65.584 13.088 65.344 12.236 64.888 11.636C64.384 10.964 63.628 10.628 62.632 10.628ZM62.656 11.432C63.832 11.432 64.492 12.092 64.612 13.424H60.736C60.796 12.812 60.988 12.332 61.324 11.972C61.66 11.612 62.104 11.432 62.656 11.432ZM69.4563 10.628C69.0243 10.628 68.6523 10.76 68.3283 11.024C68.0643 11.228 67.8483 11.516 67.6803 11.876V10.796H66.7323V17H67.6803V13.712C67.6803 13.136 67.8363 12.644 68.1723 12.236C68.4963 11.804 68.9043 11.6 69.3843 11.6C69.6843 11.6 69.9963 11.636 70.3083 11.732V10.772C70.0803 10.676 69.7923 10.628 69.4563 10.628Z" fill="#555555"/>
</g>
</svg>
