<svg width="129" height="14" viewBox="0 0 129 14" fill="none" xmlns="http://www.w3.org/2000/svg">
<path fill-rule="evenodd" clip-rule="evenodd" d="M106 0C104.895 0 104 0.89543 104 2V12C104 13.1046 104.895 14 106 14H127C128.105 14 129 13.1046 129 12V2C129 0.895431 128.105 0 127 0H106ZM112.602 11H114.39V4.688H112.602V11ZM114.234 3.644C114.45 3.452 114.558 3.192 114.558 2.864C114.558 2.536 114.45 2.28 114.234 2.096C114.026 1.904 113.778 1.808 113.49 1.808C113.202 1.808 112.95 1.904 112.734 2.096C112.526 2.28 112.422 2.536 112.422 2.864C112.422 3.192 112.526 3.452 112.734 3.644C112.95 3.828 113.202 3.92 113.49 3.92C113.778 3.92 114.026 3.828 114.234 3.644ZM111.516 11V9.392H107.832V2.684H105.96V11H111.516ZM116.01 3.116L117.798 2.828V4.688H119.946V6.176H117.798V8.396C117.798 8.772 117.862 9.072 117.99 9.296C118.126 9.52 118.394 9.632 118.794 9.632C118.986 9.632 119.182 9.616 119.382 9.584C119.59 9.544 119.778 9.492 119.946 9.428L120.198 10.82C119.982 10.908 119.742 10.984 119.478 11.048C119.214 11.112 118.89 11.144 118.506 11.144C118.018 11.144 117.614 11.08 117.294 10.952C116.974 10.816 116.718 10.632 116.526 10.4C116.334 10.16 116.198 9.872 116.118 9.536C116.046 9.2 116.01 8.828 116.01 8.42V3.116ZM121.12 6.428C120.952 6.844 120.868 7.332 120.868 7.892C120.868 8.356 120.932 8.788 121.06 9.188C121.196 9.588 121.4 9.936 121.672 10.232C121.952 10.52 122.3 10.748 122.716 10.916C123.14 11.084 123.636 11.168 124.204 11.168C124.428 11.168 124.652 11.156 124.876 11.132C125.1 11.108 125.308 11.076 125.5 11.036C125.7 11.004 125.88 10.964 126.04 10.916C126.2 10.868 126.328 10.82 126.424 10.772L126.184 9.32C125.984 9.408 125.724 9.484 125.404 9.548C125.092 9.604 124.772 9.632 124.444 9.632C123.932 9.632 123.524 9.524 123.22 9.308C122.916 9.092 122.744 8.8 122.704 8.432H126.76C126.768 8.336 126.776 8.228 126.784 8.108C126.792 7.98 126.796 7.864 126.796 7.76C126.796 6.696 126.536 5.892 126.016 5.348C125.496 4.796 124.788 4.52 123.892 4.52C123.508 4.52 123.132 4.592 122.764 4.736C122.404 4.88 122.084 5.092 121.804 5.372C121.524 5.652 121.296 6.004 121.12 6.428ZM124.984 6.764C125.032 6.908 125.06 7.056 125.068 7.208H122.704C122.728 7.056 122.764 6.908 122.812 6.764C122.868 6.612 122.944 6.48 123.04 6.368C123.136 6.256 123.256 6.168 123.4 6.104C123.544 6.032 123.716 5.996 123.916 5.996C124.124 5.996 124.296 6.032 124.432 6.104C124.576 6.176 124.692 6.268 124.78 6.38C124.876 6.492 124.944 6.62 124.984 6.764Z" fill="#555555"/>
<path fill-rule="evenodd" clip-rule="evenodd" d="M5.21587 3.69713C4.48154 3.69713 3.88761 4.00684 3.43405 4.62629C2.9805 5.24574 2.75372 6.07165 2.75372 7.10406C2.75372 8.09517 2.9724 8.90044 3.40976 9.51989C3.84711 10.1393 4.45455 10.449 5.23207 10.449C5.66403 10.449 6.06359 10.3974 6.43075 10.2942C6.79792 10.1909 7.13268 10.0619 7.43505 9.90704L8.43935 11.7963C8.01819 12.0338 7.51065 12.217 6.9167 12.3461C6.32276 12.4751 5.76122 12.5397 5.23207 12.5397C3.47184 12.5397 2.15979 12.0286 1.29587 11.0065C0.431952 9.98446 0 8.68881 0 7.11955C0 5.49866 0.461649 4.17462 1.38496 3.14737C2.30827 2.12012 3.58523 1.60651 5.21587 1.60651C5.68023 1.60651 6.20667 1.67361 6.79522 1.80783C7.38376 1.94204 7.8994 2.14336 8.34216 2.41178L7.54844 4.14622C6.99769 3.98104 6.57114 3.86489 6.26877 3.79778C5.9664 3.73068 5.61544 3.69713 5.21587 3.69713ZM13.8274 12.4789C13.0568 12.4676 12.4314 12.3882 11.9512 12.2409C11.4711 12.0935 11.0917 11.8867 10.8131 11.6203C10.5345 11.354 10.3448 11.0309 10.244 10.6512C10.1432 10.2715 10.0928 9.84367 10.0928 9.36762V1.14312L12.7469 0.80957V8.85757C12.7469 9.08426 12.7604 9.28828 12.7959 9.46963C12.8315 9.65098 12.8997 9.80399 13.0005 9.92867C13.1012 10.0534 13.2465 10.1554 13.4362 10.2347C13.6258 10.314 13.8807 10.365 14.2009 10.3877L13.8274 12.4789ZM19.9477 4.57983C21.2543 4.57983 22.3045 4.93668 23.0982 5.65037C23.892 6.36407 24.2888 7.37688 24.2888 8.68883C24.2888 9.94829 23.8677 10.9217 23.0254 11.6092C22.183 12.2967 21.1302 12.6404 19.8667 12.6404C18.614 12.6404 17.5935 12.2993 16.8052 11.6171C16.0169 10.9349 15.6227 9.93255 15.6227 8.61011C15.6227 7.35064 16.0331 6.36407 16.8538 5.65037C17.6745 4.93668 18.7058 4.57983 19.9477 4.57983ZM19.8991 10.515C20.4066 10.515 20.8062 10.3655 21.0977 10.0664C21.3893 9.76724 21.5351 9.30806 21.5351 8.68883C21.5351 8.11157 21.4028 7.63928 21.1382 7.27193C20.8737 6.90459 20.493 6.72092 19.9963 6.72092C19.4779 6.72092 19.0784 6.88359 18.7976 7.20896C18.5168 7.53432 18.3764 8.00137 18.3764 8.61011C18.3764 9.20836 18.506 9.6754 18.7652 10.0113C19.0244 10.3471 19.4023 10.515 19.8991 10.515ZM28.9901 12.6326C27.8994 12.6326 27.1273 12.3332 26.6737 11.7344C26.2202 11.1356 25.9934 10.3923 25.9934 9.5044V4.84309H28.6661V9.44246C28.6661 9.79347 28.7579 10.0619 28.9415 10.2477C29.1251 10.4336 29.3843 10.5265 29.719 10.5265C29.9242 10.5265 30.1672 10.4749 30.4479 10.3716C30.7287 10.2684 30.9879 10.1497 31.2255 10.0154V4.84309H33.8982V12.3383H32.5537L31.9382 11.6724C31.6034 11.8996 31.1742 12.1164 30.6504 12.3229C30.1267 12.5293 29.5732 12.6326 28.9901 12.6326ZM40.1383 10.4181C40.3003 10.4181 40.492 10.3871 40.7133 10.3252C40.9347 10.2632 41.1318 10.1858 41.3046 10.0929V7.15052C41.121 7.00598 40.905 6.88725 40.6567 6.79434C40.4083 6.70142 40.1815 6.65496 39.9763 6.65496C39.4364 6.65496 39.0557 6.86402 38.8343 7.28215C38.613 7.70027 38.5023 8.12098 38.5023 8.54426C38.5023 9.03982 38.6292 9.47601 38.8829 9.85284C39.1367 10.2297 39.5552 10.4181 40.1383 10.4181ZM43.9773 0.80957V12.3383H42.6167L42.0821 11.5795C41.8121 11.817 41.4531 12.0312 41.0049 12.2222C40.5568 12.4132 40.0411 12.5087 39.458 12.5087C38.2377 12.5087 37.3144 12.1345 36.6881 11.386C36.0617 10.6375 35.7486 9.70056 35.7486 8.57524C35.7486 7.44991 36.0644 6.49753 36.6962 5.71806C37.3279 4.93859 38.2917 4.54886 39.5876 4.54886C39.8575 4.54886 40.1437 4.58757 40.4461 4.665C40.7485 4.74244 41.0346 4.84826 41.3046 4.98247V1.14073L43.9773 0.80957ZM49.9034 4.54886C49.9034 3.71261 50.2598 3.01058 50.9725 2.44275C51.6853 1.87493 52.6625 1.59102 53.9044 1.59102C54.4552 1.59102 55.0167 1.66845 55.5891 1.82331C56.1614 1.97817 56.6635 2.17949 57.0955 2.42727L56.2856 4.23914C55.7888 4.06363 55.3731 3.932 55.0383 3.84424C54.7035 3.75649 54.3364 3.71261 53.9368 3.71261C53.5481 3.71261 53.2376 3.79004 53.0054 3.9449C52.7732 4.09976 52.6572 4.30624 52.6572 4.56435C52.6572 4.85342 52.8353 5.09603 53.1917 5.29219C53.5481 5.48835 53.9746 5.71031 54.4714 5.95809C55.2489 6.34008 55.994 6.80982 56.7067 7.36732C57.4195 7.92482 57.7758 8.63718 57.7758 9.5044C57.7758 10.3716 57.4006 11.0943 56.6501 11.6724C55.8995 12.2506 54.8493 12.5397 53.4995 12.5397C52.9703 12.5397 52.3467 12.4519 51.6286 12.2764C50.9104 12.1009 50.3678 11.8996 50.0006 11.6724L50.8105 9.7212C51.1129 9.88639 51.5206 10.0438 52.0335 10.1935C52.5465 10.3432 53.0135 10.4181 53.4347 10.4181C53.9638 10.4181 54.3634 10.3252 54.6334 10.1393C54.9033 9.95349 55.0383 9.73153 55.0383 9.47343C55.0383 9.23597 54.8466 9.0011 54.4633 8.76881C54.0799 8.53652 53.6614 8.31197 53.2079 8.09517C52.4628 7.7235 51.7257 7.26667 50.9968 6.72465C50.2679 6.18264 49.9034 5.45738 49.9034 4.54886ZM63.2285 12.5552C62.2458 12.5552 61.4007 12.3125 60.6934 11.8273C59.9861 11.3421 59.6324 10.6194 59.6324 9.65926V7.02663V5.04441V2.49755L62.2889 2.12589V5.04441H64.5443V7.02663H62.2889V9.33405C62.2889 9.67475 62.3834 9.94833 62.5724 10.1548C62.7614 10.3613 63.0395 10.4645 63.4066 10.4645C63.547 10.4645 63.7117 10.4413 63.9007 10.3948C64.0897 10.3484 64.2706 10.2839 64.4433 10.2013L65.2047 11.9512C65.0211 12.1164 64.7295 12.2583 64.3299 12.3771C63.9304 12.4958 63.5632 12.5552 63.2285 12.5552ZM69.5172 12.6326C68.4265 12.6326 67.6544 12.3332 67.2008 11.7344C66.7472 11.1356 66.5205 10.3923 66.5205 9.5044V4.84309H69.1932V9.44246C69.1932 9.79347 69.285 10.0619 69.4686 10.2477C69.6521 10.4336 69.9113 10.5265 70.2461 10.5265C70.4513 10.5265 70.6942 10.4749 70.975 10.3716C71.2558 10.2684 71.515 10.1497 71.7525 10.0154V4.84309H74.4253V12.3383H73.0808L72.4653 11.6724C72.1305 11.8996 71.7012 12.1164 71.1775 12.3229C70.6537 12.5293 70.1003 12.6326 69.5172 12.6326ZM80.6654 10.4181C80.8274 10.4181 81.019 10.3871 81.2404 10.3252C81.4618 10.2632 81.6589 10.1858 81.8316 10.0929V7.15052C81.6481 7.00598 81.4321 6.88725 81.1837 6.79434C80.9353 6.70142 80.7086 6.65496 80.5034 6.65496C79.9634 6.65496 79.5828 6.86402 79.3614 7.28215C79.14 7.70027 79.0293 8.12098 79.0293 8.54426C79.0293 9.03982 79.1562 9.47601 79.41 9.85284C79.6638 10.2297 80.0822 10.4181 80.6654 10.4181ZM84.5044 0.80957V12.3383H83.1437L82.6092 11.5795C82.3392 11.817 81.9801 12.0312 81.532 12.2222C81.0838 12.4132 80.5682 12.5087 79.985 12.5087C78.7648 12.5087 77.8415 12.1345 77.2151 11.386C76.5888 10.6375 76.2756 9.70056 76.2756 8.57524C76.2756 7.44991 76.5915 6.49753 77.2232 5.71806C77.855 4.93859 78.8188 4.54886 80.1146 4.54886C80.3846 4.54886 80.6708 4.58757 80.9731 4.665C81.2755 4.74244 81.5617 4.84826 81.8316 4.98247V1.14073L84.5044 0.80957ZM89.6106 2.41178C89.6106 2.79377 89.4648 3.11898 89.1733 3.3874C88.8817 3.65583 88.5361 3.79004 88.1366 3.79004C87.737 3.79004 87.3968 3.65583 87.1161 3.3874C86.8353 3.11898 86.6949 2.79377 86.6949 2.41178C86.6949 2.02979 86.8353 1.69942 87.1161 1.42067C87.3968 1.14192 87.737 1.00255 88.1366 1.00255C88.5361 1.00255 88.8817 1.14192 89.1733 1.42067C89.4648 1.69942 89.6106 2.02979 89.6106 2.41178ZM89.481 4.82761V12.3383H86.8083V4.82761H89.481ZM95.6588 4.57626C96.9655 4.57626 98.0157 4.9331 98.8094 5.6468C99.6031 6.3605 100 7.37331 100 8.68525C100 9.94472 99.5788 10.9182 98.7365 11.6056C97.8942 12.2931 96.8413 12.6368 95.5778 12.6368C94.3252 12.6368 93.3047 12.2957 92.5163 11.6135C91.728 10.9313 91.3339 9.92898 91.3339 8.60654C91.3339 7.34707 91.7442 6.3605 92.5649 5.6468C93.3857 4.9331 94.417 4.57626 95.6588 4.57626ZM95.6102 10.5158C96.1178 10.5158 96.5173 10.3662 96.8089 10.0671C97.1005 9.76799 97.2463 9.30882 97.2463 8.68958C97.2463 8.11233 97.114 7.64003 96.8494 7.27269C96.5848 6.90534 96.2042 6.72167 95.7074 6.72167C95.1891 6.72167 94.7895 6.88435 94.5088 7.20971C94.228 7.53508 94.0876 8.00212 94.0876 8.61087C94.0876 9.20911 94.2172 9.67616 94.4764 10.012C94.7355 10.3479 95.1135 10.5158 95.6102 10.5158Z" fill="#CCCCCC"/>
</svg>
