<svg width="14" height="14" viewBox="0 0 14 14" fill="none" xmlns="http://www.w3.org/2000/svg">
<path fill-rule="evenodd" clip-rule="evenodd" d="M6.41663 2.33332C4.16146 2.33332 2.33329 4.16149 2.33329 6.41666C2.33329 8.67182 4.16146 10.5 6.41663 10.5C8.67179 10.5 10.5 8.67182 10.5 6.41666C10.5 4.16149 8.67179 2.33332 6.41663 2.33332ZM1.16663 6.41666C1.16663 3.51716 3.51713 1.16666 6.41663 1.16666C9.31612 1.16666 11.6666 3.51716 11.6666 6.41666C11.6666 9.31615 9.31612 11.6667 6.41663 11.6667C3.51713 11.6667 1.16663 9.31615 1.16663 6.41666Z" fill="#CCCCCC"/>
<path fill-rule="evenodd" clip-rule="evenodd" d="M9.3 9.30004C9.52781 9.07223 9.89716 9.07223 10.125 9.30004L12.6625 11.8375C12.8903 12.0653 12.8903 12.4347 12.6625 12.6625C12.4347 12.8903 12.0653 12.8903 11.8375 12.6625L9.3 10.125C9.0722 9.89719 9.0722 9.52784 9.3 9.30004Z" fill="#CCCCCC"/>
</svg>
