<svg width="20" height="20" viewBox="0 0 20 20" fill="none" xmlns="http://www.w3.org/2000/svg">
<path fill-rule="evenodd" clip-rule="evenodd" d="M8.4052 1.32823C8.53895 1.02729 8.83738 0.833344 9.16671 0.833344C10.0508 0.833344 10.8986 1.18453 11.5237 1.80965C12.1489 2.43478 12.5 3.28262 12.5 4.16668V6.66668H16.3791C16.7397 6.66334 17.0968 6.73807 17.4259 6.88575C17.7565 7.03414 18.051 7.25265 18.2888 7.52612C18.5266 7.7996 18.7021 8.12151 18.8031 8.46954C18.9042 8.81758 18.9283 9.18343 18.8739 9.54173L17.724 17.0416C17.7239 17.0418 17.724 17.0414 17.724 17.0416C17.6334 17.6375 17.3306 18.1813 16.8713 18.5716C16.4132 18.961 15.8302 19.1722 15.2291 19.1667H3.33337C2.67033 19.1667 2.03445 18.9033 1.56561 18.4344C1.09677 17.9656 0.833374 17.3297 0.833374 16.6667V10.8333C0.833374 10.1703 1.09677 9.53442 1.56561 9.06558C2.03445 8.59674 2.67033 8.33334 3.33337 8.33334H5.29181L8.4052 1.32823ZM6.66671 9.34352L9.67323 2.57884C9.92439 2.65897 10.1553 2.7983 10.3452 2.98817C10.6578 3.30073 10.8334 3.72465 10.8334 4.16668V7.50001C10.8334 7.96025 11.2065 8.33334 11.6667 8.33334H16.3834L16.3928 8.33329C16.5136 8.33192 16.6333 8.35683 16.7435 8.4063C16.8537 8.45576 16.9518 8.5286 17.0311 8.61975C17.1104 8.71091 17.1689 8.81822 17.2025 8.93423C17.2362 9.05013 17.2443 9.17196 17.2262 9.29129C17.2262 9.29118 17.2262 9.2914 17.2262 9.29129L16.0761 16.7917C16.046 16.9904 15.9451 17.1716 15.7919 17.3017C15.6388 17.4319 15.4438 17.5023 15.2428 17.5001L6.66671 17.5V9.34352ZM5.00004 17.5V10H3.33337C3.11236 10 2.9004 10.0878 2.74412 10.2441C2.58784 10.4004 2.50004 10.6123 2.50004 10.8333V16.6667C2.50004 16.8877 2.58784 17.0997 2.74412 17.2559C2.9004 17.4122 3.11236 17.5 3.33337 17.5H5.00004Z" fill="#76808E"/>
</svg>
